<svg width="57" height="65" viewBox="0 0 57 65" fill="none" xmlns="http://www.w3.org/2000/svg">
<path d="M8.125 4.0625C8.125 1.81543 6.30957 0 4.0625 0C1.81543 0 0 1.81543 0 4.0625V60.9375C0 63.1846 1.81543 65 4.0625 65C6.30957 65 8.125 63.1846 8.125 60.9375V44.6875L16.2881 42.6436C18.9541 41.9834 21.6963 41.8057 24.375 42.123V28.5771C21.8867 28.2852 19.3477 28.4375 16.8848 29.0596L8.125 31.2559V19.0684L16.8848 16.8848C19.3477 16.2627 21.8867 16.1104 24.375 16.4023V28.5898C26.7617 28.8691 29.0977 29.5674 31.2812 30.6592C34.2266 32.1318 37.4258 32.8682 40.625 32.8682V46.6934C43.7227 46.8711 46.8584 46.4141 49.8291 45.2969L54.2344 43.6465C55.8213 43.0498 56.875 41.5391 56.875 39.8379V27.1934L49.9688 30.6465C47.0234 32.1191 43.8242 32.8555 40.625 32.8555V20.668C43.8242 20.668 47.0234 19.9316 49.9688 18.459L56.875 15.0059V8.4043C56.875 5.48437 53.8027 3.58008 51.1875 4.8877L49.9688 5.49707C47.0234 6.95703 43.8242 7.69336 40.625 7.69336V20.6553C37.4258 20.6553 34.2266 19.9189 31.2812 18.4463C29.0977 17.3545 26.7617 16.6689 24.375 16.377V3.42773C21.8867 3.13574 19.3477 3.28809 16.8848 3.91016L8.125 6.09375V4.0625Z" fill="#027998"/>
</svg>
